<svg width="203" height="200" viewBox="0 0 203 200" fill="none" xmlns="http://www.w3.org/2000/svg">
<g clip-path="url(#clip0_509_797)">
<path d="M44.3737 111.725C44.3737 111.725 44.3153 111.725 44.2893 111.725H0V200H44.2893C44.2893 200 44.3477 200 44.3737 200C68.8843 200 88.7475 180.236 88.7475 155.862C88.7475 131.489 68.8778 111.725 44.3737 111.725Z" fill="#77CBC2"/>
<path d="M44.3802 199.994L44.3802 111.718H0.00650787L0.00650787 199.994H44.3802Z" fill="#028373"/>
<path d="M42.9503 44.3123C42.9503 8.15907 0.688965 4.62262 0.688965 4.62262V88.8767H85.2116V4.62262C85.2116 4.62262 42.9503 8.16553 42.9503 44.3123Z" fill="#1E55A6"/>
<path d="M146.212 100.145L89.417 197.989H203L146.212 100.145Z" fill="#ED3293"/>
<path d="M170.326 141.697L137.652 197.989H203L170.326 141.697Z" fill="#F38BB9"/>
<path d="M145.874 88.2754C170.381 88.2754 190.247 68.5143 190.247 44.1377C190.247 19.7611 170.381 0 145.874 0C121.367 0 101.5 19.7611 101.5 44.1377C101.5 68.5143 121.367 88.2754 145.874 88.2754Z" fill="#F47D20"/>
<path d="M190.247 44.1377C190.247 19.764 170.384 0 145.874 0C121.363 0 101.5 19.764 101.5 44.1377C101.5 44.8424 101.52 45.5342 101.552 46.2324H190.195C190.228 45.5406 190.247 44.8424 190.247 44.1377Z" fill="#FBAA19"/>
<path d="M85.2116 45.8768H0.688965V88.8702H85.2116V45.8768Z" fill="#47A5DD"/>
</g>
<defs>
<clipPath id="clip0_509_797">
<rect width="203" height="200" fill="white"/>
</clipPath>
</defs>
</svg>
